<?xml version="1.0" encoding="UTF-8" standalone="no"?>
<!-- Created with Inkscape (http://www.inkscape.org/) -->

<svg
   width="170.98259mm"
   height="170.77151mm"
   viewBox="0 0 170.98259 170.77151"
   version="1.1"
   id="svg5"
   xml:space="preserve"
   inkscape:version="1.2.1 (9c6d41e, 2022-07-14)"
   sodipodi:docname="logo.svg"
   xmlns:inkscape="http://www.inkscape.org/namespaces/inkscape"
   xmlns:sodipodi="http://sodipodi.sourceforge.net/DTD/sodipodi-0.dtd"
   xmlns="http://www.w3.org/2000/svg"
   xmlns:svg="http://www.w3.org/2000/svg"><sodipodi:namedview
     id="namedview7"
     pagecolor="#505050"
     bordercolor="#eeeeee"
     borderopacity="1"
     inkscape:showpageshadow="0"
     inkscape:pageopacity="0"
     inkscape:pagecheckerboard="0"
     inkscape:deskcolor="#505050"
     inkscape:document-units="mm"
     showgrid="false"
     inkscape:zoom="0.4204826"
     inkscape:cx="607.63513"
     inkscape:cy="454.23996"
     inkscape:window-width="1920"
     inkscape:window-height="1078"
     inkscape:window-x="1512"
     inkscape:window-y="25"
     inkscape:window-maximized="1"
     inkscape:current-layer="layer1" /><defs
     id="defs2" /><g
     inkscape:label="Layer 1"
     inkscape:groupmode="layer"
     id="layer1"
     transform="translate(-32.46379,-49.488519)"><rect
       style="fill:#ffffff;fill-opacity:1;stroke-width:1.2;stroke-linejoin:round"
       id="rect1025"
       width="251.06567"
       height="237.53708"
       x="-6.8635411"
       y="6.7003851" /><path
       style="fill:#0a2d6e;fill-opacity:1;stroke-width:0.264583"
       d="m 116.10489,219.82314 c -5.33413,-2.1375 -12.05931,-10.17496 -17.840193,-21.32134 -1.843897,-3.55529 -2.153375,-4.42105 -1.580377,-4.42105 0.687998,0 11.91316,-4.75418 18.19577,-7.70643 1.50917,-0.70917 2.83626,-1.2894 2.94909,-1.2894 0.11283,0 1.49743,0.60673 3.07689,1.3483 2.48021,1.16447 16.57675,7.25508 17.88684,7.72827 0.25466,0.092 0.46302,0.26822 0.46302,0.39165 0,0.42617 -3.61624,7.3397 -5.01191,9.58178 -3.64869,5.86143 -5.64015,8.50473 -8.66225,11.49758 -3.14641,3.11593 -5.74167,4.66394 -7.75709,4.62689 -0.3638,-0.007 -1.13771,-0.203 -1.71979,-0.43625 z M 54.192394,154.42811 c -8.074791,-4.17017 -13.411641,-7.94712 -17.859374,-12.63931 -5.107802,-5.38853 -5.146135,-8.19711 -0.188206,-13.7894 3.046471,-3.43627 6.839177,-6.3471 13.417372,-10.29759 1.9661,-1.18073 8.526193,-4.58355 8.836342,-4.58355 0.06227,0 0.436875,0.8632 0.832446,1.91823 2.079918,5.54737 5.738537,13.95821 7.687637,17.67319 l 0.908736,1.73205 -2.389436,5.3687 c -1.314191,2.95278 -3.410572,7.82883 -4.658625,10.83565 -1.248055,3.00683 -2.347703,5.54902 -2.443665,5.64931 -0.09596,0.10029 -1.960414,-0.73998 -4.143227,-1.86728 z m 122.474416,1.61879 c -0.49023,-1.58349 -2.7263,-7.22777 -5.21474,-13.16302 -1.58631,-3.78354 -3.01381,-7.19925 -3.17223,-7.59046 -0.25442,-0.62831 -0.0987,-1.10675 1.33503,-4.10104 0.89269,-1.86436 1.85431,-3.98506 2.13695,-4.71266 1.31323,-3.38066 5.3469,-13.19245 5.47694,-13.32249 0.20353,-0.20352 3.61064,1.51124 7.56913,3.80947 9.69741,5.63012 17.41965,12.55986 18.51045,16.61079 1.38787,5.15416 -7.78656,13.64723 -23.17429,21.45319 -1.60072,0.81202 -3.00344,1.47705 -3.11715,1.47782 -0.11371,8e-4 -0.27125,-0.20694 -0.35009,-0.4616 z M 113.29062,82.780666 c -4.31793,-1.969061 -9.54522,-4.197819 -14.187263,-6.049021 -1.347197,-0.537249 -2.51171,-1.077555 -2.587805,-1.200681 -0.0761,-0.123124 0.594607,-1.687838 1.490449,-3.477139 4.311009,-8.610546 8.374689,-14.489429 13.169759,-19.05256 2.92559,-2.784086 4.29817,-3.509237 6.64892,-3.512735 2.57101,-0.0038 4.28242,0.934953 7.43561,4.078766 1.39745,1.393291 3.09121,3.264606 3.7639,4.158477 4.12351,5.479251 10.29034,16.333234 9.88302,17.394697 -0.0736,0.191911 -1.2457,0.831509 -2.60457,1.421331 -6.79189,2.948051 -13.08706,5.705435 -15.73598,6.892616 l -2.94657,1.320575 z"
       id="path878"
       sodipodi:nodetypes="sssssssssscsssssssscsssssssssssssssssssscsccsscs" /><path
       style="fill:#f0781e;fill-opacity:1;stroke-width:0.264583"
       d="m 63.464353,196.1517 c -2.02036,-0.50062 -3.39688,-1.32614 -4.70528,-2.82183 -1.58838,-1.81576 -2.05371,-3.44406 -2.23133,-7.80785 -0.23755,-5.8364 0.87029,-12.48101 3.29517,-19.76373 1.45961,-4.38368 1.5532,-4.53982 2.45081,-4.08899 0.74024,0.37179 1.45181,0.65806 8.59896,3.45946 5.51372,2.16116 11.63112,4.40824 12.0009,4.40824 0.12949,0 0.53815,0.92274 0.90815,2.05053 1.51372,4.61398 3.29946,9.50671 5.65274,15.48788 0.96113,2.44284 1.70229,4.48049 1.64702,4.52812 -0.0553,0.0476 -1.31972,0.51666 -2.80991,1.04229 -8.53705,3.01128 -20.16903,4.65516 -24.80723,3.50588 z m 98.838027,0.0693 c -3.68982,-0.38537 -16.94847,-3.89252 -17.82743,-4.71566 -0.11906,-0.1115 0.0973,-0.94822 0.48079,-1.85937 0.9439,-2.24258 6.91794,-18.21749 7.38428,-19.74597 0.11982,-0.39272 0.54968,-0.66606 1.42097,-0.90358 1.27825,-0.34845 3.07383,-0.98825 8.65751,-3.08483 6.51201,-2.44515 10.07673,-3.81791 10.83721,-4.17336 0.43067,-0.2013 0.86058,-0.31808 0.95534,-0.25952 0.54912,0.33937 3.24477,9.37957 4.08676,13.70545 1.56179,8.02395 1.48041,14.48488 -0.21864,17.35642 -1.06058,1.79246 -2.89879,3.15156 -4.89941,3.62243 -1.68492,0.39657 -7.34665,0.42675 -10.87738,0.058 z m -66.975777,-7.8025 c -1.62454,-4.182 -5.56644,-15.97269 -5.41951,-16.21043 0.0929,-0.15025 0.84299,0.057 1.80697,0.49915 4.84914,2.22437 10.851297,4.92537 12.363817,5.56376 3.57856,1.51043 6.70334,2.93986 7.22439,3.30482 0.50726,0.3553 0.35533,0.46705 -2.48213,1.82567 -4.55146,2.17932 -11.940197,5.4831 -12.608777,5.63787 -0.46566,0.10779 -0.65269,-0.0234 -0.88476,-0.62084 z m 39.972107,-1.14364 c -2.25557,-0.99463 -4.45823,-1.96308 -4.89479,-2.1521 -3.79203,-1.64185 -6.57955,-2.89482 -6.69332,-3.00858 -0.13254,-0.13254 4.33252,-2.31999 8.94228,-4.38086 1.23693,-0.55299 4.21349,-1.91903 6.61458,-3.03566 4.40683,-2.04938 6.55905,-2.92312 6.74422,-2.73795 0.31553,0.31553 -6.01903,17.1797 -6.43818,17.14002 -0.0956,-0.009 -2.01921,-0.83023 -4.27479,-1.82487 z m -58.076027,-25.1257 c -8.25195,-2.86067 -13.36146,-4.96537 -13.36146,-5.50382 0,-0.22379 0.49309,-1.55213 1.09575,-2.95188 3.69634,-8.5852 5.49903,-12.59252 5.69382,-12.65718 0.12204,-0.0405 0.63089,0.84895 1.13078,1.97656 0.4999,1.12762 1.54169,3.39924 2.31511,5.04807 0.77341,1.64882 1.40621,3.04511 1.40621,3.10286 0,0.0577 0.72318,1.68528 1.60708,3.61672 2.20745,4.82361 2.24927,4.91829 2.87019,6.49808 0.58856,1.49744 0.66638,1.91692 0.35137,1.89398 -0.10914,-0.008 -1.50812,-0.46847 -3.10885,-1.02339 z m 77.655197,0.77699 c 0,-0.14347 0.83934,-2.13777 1.8652,-4.43177 1.02586,-2.294 2.28649,-5.12342 2.8014,-6.28758 0.51491,-1.16417 1.23282,-2.75352 1.59535,-3.5319 0.36254,-0.77838 0.81609,-1.84995 1.0079,-2.38125 0.51929,-1.43844 2.53645,-5.6677 2.64937,-5.55478 0.0539,0.0539 0.70621,1.5251 1.44964,3.2694 0.74342,1.74429 1.51887,3.52863 1.72322,3.96519 0.59325,1.26742 3.54258,8.43155 3.62974,8.81691 0.0439,0.19396 -0.33399,0.51249 -0.84682,0.71386 -2.56153,1.00584 -15.43089,5.68277 -15.63709,5.68277 -0.13085,0 -0.23791,-0.11738 -0.23791,-0.26085 z M 70.325133,128.46044 c -0.10247,-0.32742 -0.54137,-1.36921 -0.97532,-2.3151 -0.43396,-0.94589 -1.66295,-3.70976 -2.7311,-6.14195 -1.06816,-2.43219 -2.18557,-4.92608 -2.48314,-5.54197 -0.29756,-0.6159 -0.45126,-1.20136 -0.34154,-1.30102 0.31303,-0.28436 16.62622,-6.58806 17.06012,-6.59234 0.25162,-0.002 -0.0204,0.68858 -1.79794,4.5683 -0.81522,1.77926 -2.02263,4.42565 -2.68315,5.88086 -0.66051,1.4552 -1.4724,3.24114 -1.80419,3.96875 -0.33179,0.7276 -0.92296,2.03729 -1.31371,2.91041 -1.94678,4.35001 -2.34463,5.15938 -2.53611,5.15938 -0.11418,0 -0.29143,-0.26789 -0.39392,-0.59532 z m 92.143467,-4.49791 c -2.89926,-6.13044 -7.87477,-17.46508 -7.73008,-17.60977 0.0916,-0.0916 16.76974,6.47136 17.02311,6.69871 0.0686,0.0616 -2.16726,5.32559 -5.98008,14.07895 -0.39446,0.90559 -0.78744,1.64973 -0.87328,1.65364 -0.0858,0.004 -1.1837,-2.16578 -2.43967,-4.82153 z M 60.717983,107.25177 c -0.82478,-2.20441 -2.57445,-9.099038 -3.36333,-13.253298 -0.94235,-4.96242 -1.06563,-12.06076 -0.25255,-14.54214 0.70114,-2.1398 2.29245,-4.05875 4.12839,-4.97843 4.60445,-2.3065 15.13176,-1.21411 26.21969,2.72075 1.69606,0.60189 3.28184,1.2392 3.52395,1.41623 0.39953,0.29215 0.32841,0.54649 -0.76991,2.75338 -1.34701,2.70657 -3.68767,8.84323 -5.52945,14.49693 -0.66631,2.04534 -1.28645,3.91423 -1.37811,4.153078 -0.0977,0.2547 -1.05982,0.72784 -2.32656,1.14418 -1.18796,0.39044 -3.76727,1.33729 -5.7318,2.1041 -1.96453,0.76682 -5.17921,2.01332 -7.14375,2.77001 -1.96453,0.75668 -4.04812,1.58793 -4.6302,1.84722 -2.17062,0.96688 -2.14604,0.97254 -2.74637,-0.63201 z m 104.743227,-2.17744 c -8.07197,-3.30948 -8.87983,-3.616 -11.68907,-4.43521 -1.70805,-0.49808 -1.32526,0.23477 -3.39959,-6.508358 -1.16012,-3.77125 -3.64689,-10.7303 -4.99115,-13.96736 l -0.801,-1.92882 0.71697,-0.27714 c 1.69151,-0.65383 6.49337,-2.07761 9.18363,-2.72301 1.60073,-0.38402 3.34586,-0.81529 3.87808,-0.95838 1.60521,-0.43158 6.80974,-1.04737 8.85211,-1.04737 6.72721,0 10.08812,1.8472 11.50691,6.32436 0.44722,1.41125 0.55335,2.42929 0.55433,5.3173 0.002,4.67983 -0.99187,10.30688 -3.15311,17.859378 -0.37478,1.30968 -0.87494,3.09562 -1.11146,3.96875 -0.33091,1.22156 -0.55069,1.59867 -0.95344,1.63598 -0.28788,0.0267 -4.15481,-1.44039 -8.59321,-3.26012 z M 89.400713,97.530322 c 0.30812,-0.99871 3.95218,-10.67549 5.21582,-13.8506 0.93268,-2.34352 1.25146,-2.89389 1.6366,-2.82557 0.49239,0.0873 11.836897,5.17927 13.844017,6.21381 0.61846,0.31878 1.12449,0.63994 1.12449,0.71369 0,0.27533 -19.784897,9.69168 -21.391227,10.18085 -0.55857,0.1701 -0.60203,0.12638 -0.4297,-0.43218 z m 54.680437,-0.27073 c -9.17616,-4.19491 -12.16235,-5.58765 -15.88865,-7.41036 -2.43548,-1.19131 -4.228,-2.21717 -4.0992,-2.34597 0.24151,-0.24151 3.34905,-1.63966 9.48562,-4.26778 5.47151,-2.3433 6.23196,-2.61251 6.35087,-2.24831 0.0559,0.17122 0.72227,1.97817 1.48083,4.01547 3.66675,9.84794 4.7051,12.82147 4.5135,12.92528 -0.0959,0.052 -0.92524,-0.24878 -1.84297,-0.66833 z"
       id="path878-1"
       sodipodi:nodetypes="sssssssssccssscsssscsssssccccssscsssscscsssssssssscssssscsscccsssssssccssssscscsccsssssssscssscssssscssssscsscssscsssscssssscc" /><path
       d="m 145.89705,112.91987 v 5.98756 c 0,5.51355 -12.51151,9.97928 -27.94197,9.97928 -15.43046,0 -27.941976,-4.46573 -27.941976,-9.97928 v -5.98756 c 0,-5.51355 12.511516,-9.97928 27.941976,-9.97928 15.43046,0 27.94197,4.46573 27.94197,9.97928 z m -6.8358,16.8026 c 2.59461,-0.92308 4.97717,-2.10812 6.8358,-3.56759 v 12.71111 c 0,5.51354 -12.51151,9.97927 -27.94197,9.97927 -15.43046,0 -27.941976,-4.46573 -27.941976,-9.97927 v -12.71111 c 1.85864,1.47194 4.241192,2.64451 6.835805,3.56759 5.600871,1.99586 13.060381,3.15595 21.106171,3.15595 8.04579,0 15.5053,-1.16009 21.10617,-3.15595 z m -49.048146,16.39096 c 1.85864,1.47195 4.241192,2.64451 6.835805,3.5676 5.600871,1.99585 13.060381,3.15594 21.106171,3.15594 8.04579,0 15.5053,-1.16009 21.10617,-3.15594 2.59461,-0.92309 4.97717,-2.10812 6.8358,-3.5676 v 10.71525 c 0,5.51355 -12.51151,9.97928 -27.94197,9.97928 -15.43046,0 -27.941976,-4.46573 -27.941976,-9.97928 z"
       id="path9165"
       style="fill:#646464;fill-opacity:1;stroke-width:0.124741;stroke:none;stroke-opacity:1" /></g></svg>
